<svg xmlns="http://www.w3.org/2000/svg" viewBox="0 0 128 128" fill="none">
  <path d="M64 16c-26.5 0-48 21.5-48 48 0 9.3 2.6 18 7.2 25.4L16 112l23.7-7.1A47.8 47.8 0 0 0 64 112c26.5 0 48-21.5 48-48S90.5 16 64 16Z" fill="#25D366"/>
  <path d="M45.5 43.8c2.1-2 4.1-2.2 5.6-.6l5.1 5.9c1.3 1.5 1.2 3.7-.4 5.2l-2.9 2.8a4 4 0 0 0-.6 5.1c2.7 4.2 6.3 7.8 10.5 10.6a4 4 0 0 0 5.1-.6l2.8-2.9c1.5-1.5 3.8-1.7 5.2-.4l5.9 5.1c1.6 1.5 1.4 3.5-.6 5.6-4.7 4.7-11.2 5.8-17.2 2.7-8.4-4.2-15.2-11-19.4-19.4-3.1-6-2-12.5 2.7-17.2Z" fill="#fff"/>
</svg>
